<svg id="Layer_1" height="512" viewBox="0 0 50 50" width="512" xmlns="http://www.w3.org/2000/svg"><g><g><path d="m49 22.6706v4.6745c0 .7216-.502 1.3648-1.2078 1.5216l-2.2432.5333c-3.0614.7485-4.5182 4.4477-2.8235 7.153l1.1452 1.851c.3765.6117.2823 1.4117-.2353 1.9294l-3.3098 3.3098c-.5177.5177-1.3177.6118-1.9295.2196l-1.851-1.1451c-2.7413-1.6845-6.4087-.2234-7.1843 2.9803l-.502 2.102c-.1569.7059-.8 1.2078-1.5216 1.2078h-4.6745c-.7216 0-1.3647-.5019-1.5216-1.2078l-.502-2.102c-.777-3.2096-4.4464-4.6627-7.1842-2.9803l-1.851 1.1451c-.6118.3922-1.4118.298-1.9295-.2196l-3.3098-3.3098c-.5177-.5177-.6118-1.3177-.2353-1.9294l1.1452-1.851c1.6973-2.7094.2334-6.4057-2.8235-7.153l-2.2432-.5333c-.7058-.1568-1.2078-.8-1.2078-1.5216v-4.6745c0-.7216.502-1.3647 1.2078-1.5215l2.2432-.5491c1.4588-.3294 2.6039-1.3961 3.1686-2.7764 0-.0157 0-.0314.0157-.0471.5647-1.3647.502-2.9176-.2823-4.1882l-1.2236-1.9765c-.3765-.6118-.2824-1.4118.2353-1.9294l3.3098-3.3099c.5177-.5176 1.3177-.6117 1.9295-.2352l1.851 1.1451c2.7516 1.724 6.417.2049 7.1842-2.9647l.5019-2.1177c.1569-.7059.8-1.2079 1.5216-1.2079h4.6745c.7216 0 1.3647.502 1.5216 1.2079l.502 2.1176c.7668 3.1675 4.432 4.6892 7.1843 2.9647l1.851-1.1451c.6118-.3765 1.4118-.2823 1.9295.2352l3.3098 3.3099c.5176.5177.6117 1.3177.2352 1.9295l-1.2236 1.9765c-1.6061 2.5566-.1392 6.3022 2.9019 7.0117l2.2432.5491c.7059.1568 1.2079.7999 1.2079 1.5215z" fill="#58b2e4"/><path d="m39.4987 25.0047c0 8-6.5 14.5-14.5 14.5s-14.5-6.5-14.5-14.5c0-8.01 6.5-14.5 14.5-14.5s14.5 6.49 14.5 14.5z" fill="#fff"/><path d="m30.44 23.699h2.5v9.578h-2.5z" fill="#8a6a9e"/><path d="m17.06 25.077h2.5v8.2h-2.5z" fill="#ea715f"/><path d="m25.98 28.53h2.5v4.746h-2.5z" fill="#696867"/><path d="m21.52 22.283h2.5v10.993h-2.5z" fill="#85be57"/><g fill="#696867"><path d="m22.4186 18.3147-.59.51-2.09 1.83-.59.52c-.06-.26-.25-.47-.5-.57l.6-.52 2.09-1.83.6-.52c.0601.26.24.47.48.58z"/><path d="m26.2986 20.0948.59.51c-.24.1-.43.31-.49.57l-.59-.52-2.1-1.83-.59-.51c.24-.11.42-.31.49-.57l.59.51z"/><path d="m31.2487 19.1847-.66.44-1.84 1.22-.65.44c-.04-.27-.2-.5-.4301-.62l.66-.44 1.85-1.22.65-.44c.03.2701.2001.5.4201.62z"/></g><g><path d="m22.7704 19.1325c-.8965 0-1.625-.729-1.625-1.625s.7285-1.625 1.625-1.625 1.625.729 1.625 1.625-.7285 1.625-1.625 1.625zm0-2.5c-.4824 0-.875.3926-.875.875s.3926.875.875.875.875-.3926.875-.875-.3926-.875-.875-.875z" fill="#9b7dab"/></g><g><path d="m27.2303 23.0334c-.8965 0-1.625-.729-1.625-1.625s.7285-1.625 1.625-1.625 1.625.729 1.625 1.625-.7285 1.625-1.625 1.625zm0-2.5c-.4824 0-.875.3926-.875.875s.3926.875.875.875.875-.3926.875-.875-.3925-.875-.875-.875z" fill="#9b7dab"/></g><g><path d="m18.3104 23.0334c-.8965 0-1.625-.729-1.625-1.625s.7285-1.625 1.625-1.625 1.625.729 1.625 1.625-.7285 1.625-1.625 1.625zm0-2.5c-.4824 0-.875.3926-.875.875s.3926.875.875.875.875-.3926.875-.875-.3926-.875-.875-.875z" fill="#9b7dab"/></g><g><path d="m31.6903 20.0691c-.8965 0-1.625-.729-1.625-1.625s.7285-1.625 1.625-1.625 1.625.729 1.625 1.625-.7285 1.625-1.625 1.625zm0-2.5c-.4824 0-.875.3926-.875.875s.3926.875.875.875.875-.3926.875-.875-.3926-.875-.875-.875z" fill="#9b7dab"/></g></g></g></svg>